<svg xmlns="http://www.w3.org/2000/svg" width="380" height="390" version="1.0" viewBox="0 0 285 292.5"><defs><clipPath id="a"><path d="M53 15.02h181V123H53Zm0 0"/></clipPath><clipPath id="b"><path d="M7.086 110H137v150H7.086Zm0 0"/></clipPath></defs><g clip-path="url(#a)"><path fill="#fff" d="m56.059 93.496 48.07 28.29a4.24 4.24 0 0 0 2.293.675h.008a4.22 4.22 0 0 0 3.789-2.356l31.023-54.832c.043-.07.078-.144.113-.218l19.157 32.394-12.98 7.766a4.224 4.224 0 0 0 1.968 7.844l57.598 2.742.199.004c1.7 0 3.242-1.024 3.898-2.602a74228 74228 0 0 0 11.012-26.48q5.469-13.138 10.93-26.282a4.23 4.23 0 0 0-1.172-4.847 4.23 4.23 0 0 0-4.973-.352l-12.113 7.606-10.055-17.192c-2.668-4.562-5.336-9.12-8.008-13.695a59 59 0 0 1-.992-1.758l-.379-.676c-2.187-3.953-5.3-7.332-8.996-9.777l-.058-.043c-.028-.02-.063-.039-.094-.059a25.77 25.77 0 0 0-13.317-4.187 889 889 0 0 0-27.902-.438c-10.023 0-20.25.18-30.402.528a4.22 4.22 0 0 0-4.07 4.195 19.5 19.5 0 0 0-8.645-.39c-.508.085-.977.199-1.414.304-.016 0-.031.008-.047.012-5.203 1.308-9.82 4.914-12.66 9.883l-33.313 58.21a4.226 4.226 0 0 0 1.524 5.739Zm89.027-70.031c9.262 0 18.562.144 27.633.433a17.34 17.34 0 0 1 8.914 2.782l.05.035c.028.015.051.035.083.055 3.257 2.148 5.226 4.91 6.304 6.859l.368.656c.351.637.714 1.297 1.097 1.95 2.668 4.562 5.336 9.12 8.004 13.683 4.082 6.98 8.172 13.969 12.25 20.957a4.24 4.24 0 0 0 2.64 1.969 4.22 4.22 0 0 0 3.255-.524l4.562-2.867q-2.918 7.012-5.832 14.024-4.94 11.87-9.875 23.746l-40.672-1.938 4.59-2.746a4.22 4.22 0 0 0 1.465-5.773L131.953 32.55a49 49 0 0 0-6.371-8.864 884 884 0 0 1 19.5-.222ZM95.18 33.746c1.707-2.984 4.39-5.129 7.375-5.887.316-.074.597-.14.87-.187 1.782-.317 3.47-.23 5.165.27 1.953.57 3.832 1.796 5.422 3.542 1.699 1.871 2.61 2.996 2.781 3.246 4.883 7.368 12.914 20.903 16.633 27.211l-28.559 50.477-40.926-24.086Zm0 0"/></g><path fill="#fff" d="m274.855 164.953-33.75-57.957a4.23 4.23 0 0 0-5.734-1.55l-48.55 27.5a4.225 4.225 0 0 0-1.707 5.902l32.109 54.504c.035.066.078.125.117.187l-37.598.395-.234-15.121a4.22 4.22 0 0 0-3.067-3.997 4.21 4.21 0 0 0-4.707 1.778c-10.39 16.172-20.777 32.347-31.168 48.508a4.23 4.23 0 0 0 .196 4.851l17.36 22.688 17.358 22.691a4.223 4.223 0 0 0 7.575-2.727l-.532-14.289 35.766-.199c.633-.008 1.277.008 1.957.02.281.004.563.011.836.011 3.148.059 7.965-.402 13-2.918l.125-.062a25.8 25.8 0 0 0 10.281-9.438 852 852 0 0 0 14.332-23.945 894 894 0 0 0 14.668-26.45 4.224 4.224 0 0 0-1.511-5.776 19.7 19.7 0 0 0 4.66-7.309q.245-.68.449-1.39c1.465-5.173.652-10.97-2.227-15.907Zm-80.285-26.691 41.332-23.407 31.653 54.352c1.734 2.969 2.242 6.375 1.398 9.344-.082.281-.172.566-.265.832-.618 1.695-1.536 3.113-2.813 4.332-1.484 1.422-3.484 2.43-5.785 2.93-2.477.539-3.91.761-4.203.789-9.461.582-26.625.754-31.883.796-9.813-16.656-19.621-33.312-29.434-49.964Zm56.934 79.304c-4.617 8-9.39 15.98-14.195 23.711a17.35 17.35 0 0 1-6.895 6.344l-.11.055c-3.507 1.754-6.882 2.074-9.085 2.031-.27 0-.54-.008-.809-.012a67 67 0 0 0-2.18-.023l-40.12.223a4.22 4.22 0 0 0-4.2 4.383l.203 5.37c-3.097-4.046-6.191-8.097-9.289-12.14l-15.558-20.336c7.336-11.414 14.668-22.832 22.004-34.246l.082 5.34a4.22 4.22 0 0 0 4.222 4.156h.047l74.598-.785a49 49 0 0 0 10.844-1.078 876 876 0 0 1-9.563 17.007Zm0 0"/><g clip-path="url(#b)"><path fill="#fff" d="M135.559 195.676a4.22 4.22 0 0 0-3.309-1.254c-10.414.094-20.82.183-31.227.273-10.593.094-21.183.184-31.777.282a4 4 0 0 0-.219.007l18.47-32.78 13.218 7.358a4.23 4.23 0 0 0 4.992-.656 4.23 4.23 0 0 0 .816-4.969c-6.609-12.832-13.226-25.66-19.84-38.488l-6.581-12.765a4.22 4.22 0 0 0-4.301-2.25c-9.43 1.226-18.86 2.457-28.29 3.683q-14.185 1.851-28.366 3.695a4.22 4.22 0 0 0-3.614 3.442 4.22 4.22 0 0 0 2.18 4.48l12.64 6.684-17.703 31.059a84 84 0 0 1-1.257 2.113l-.18.297c-1.629 2.699-3.64 7.101-3.984 12.726q-.01.129-.008.258v.004c-.242 4.676.8 9.344 3.031 13.5a870 870 0 0 0 13.57 24.387 880 880 0 0 0 15.52 25.851 4.23 4.23 0 0 0 3.531 2.215l.191.004a4.2 4.2 0 0 0 2.09-.559 19.6 19.6 0 0 0 3.989 7.68c.297.356.625.723 1 1.102 3.718 3.832 9.113 6.023 14.812 6.023h.074l67.063-.254a4.22 4.22 0 0 0 4.207-4.191l.465-55.696a4.2 4.2 0 0 0-1.203-3.25l-.008-.011Zm-94.47 33.648a851 851 0 0 1-9.944-16.789 869 869 0 0 1-13.442-24.148 17.4 17.4 0 0 1-2.039-9.16c.004-.079.008-.149.008-.227.258-3.852 1.648-6.887 2.777-8.754l.176-.289q.677-1.113 1.36-2.297l19.867-34.851a4.24 4.24 0 0 0 .382-3.274 4.24 4.24 0 0 0-2.082-2.555l-4.75-2.507q7.599-.989 15.196-1.985c8.449-1.097 16.902-2.199 25.347-3.297l5.223 10.125 13.437 26.07-4.683-2.609a4.22 4.22 0 0 0-5.73 1.618L45.57 219.398a49.7 49.7 0 0 0-4.492 9.926Zm86.806 21.067-62.891.238h-.047c-3.426 0-6.613-1.262-8.754-3.465a10 10 0 0 1-.562-.617l-.02-.024a11.1 11.1 0 0 1-2.351-4.605c-.485-1.98-.356-4.215.363-6.469.828-2.597 1.312-3.804 1.418-4.031 3.816-7.656 10.988-20.473 15.25-28.004l30.793-.27 27.191-.242-.394 47.489Zm0 0"/></g></svg>