<svg xmlns="http://www.w3.org/2000/svg" width="380" height="390" version="1.0" viewBox="0 0 285 292.5"><defs><clipPath id="a"><path d="M8.438 9.379H276.48v273.273H8.438Zm0 0"/></clipPath></defs><g clip-path="url(#a)"><path fill="#fff" d="m276.16 62.148.176-.488-133.82-52.28L8.898 62.203l-.445-.176v.34l-.015.012.015.055V230.14l133.996 52.511 134.008-52.527V62.027ZM142.38 19.66l45.402 16.258L64.027 83.949 22.121 67.418Zm-4.7 251.153-50.183-20.27-25.187-9.457-44.28-17.466V76.105l43.83 17.286v36.882l3.903-1.085 2.644 3.617 3.672-.852 3.563 3.766 3.101-1.086 5.012 4.972v-37.582l3.902 1.543 50.024 19.727Zm4.782-155.918-48.938-19.31 120.68-48.91 49.777 20.286ZM266.895 223.62l-119.649 47.191V123.294L266.88 76.09v147.53Zm0 0"/></g></svg>