<svg xmlns="http://www.w3.org/2000/svg" width="380" height="390" version="1.0" viewBox="0 0 285 292.5"><defs><clipPath id="a"><path d="M24.52 9h235.847v274.945H24.52Zm0 0"/></clipPath></defs><g clip-path="url(#a)"><path fill="#fff" d="M250.215 48.566c-54.473 0-101.149-36.664-101.606-37.03a10 10 0 0 0-2.879-1.586 9.4 9.4 0 0 0-1.593-.41 9.7 9.7 0 0 0-3.29 0 9.4 9.4 0 0 0-1.593.41 10 10 0 0 0-2.879 1.585c-.457.375-46.902 37.031-101.594 37.031a9.7 9.7 0 0 0-5.441 1.648 9.6 9.6 0 0 0-1.485 1.216 9.9 9.9 0 0 0-2.125 3.18 9.8 9.8 0 0 0-.742 3.746v88.132c0 65.746 26.528 97.578 113.532 136.254a9.75 9.75 0 0 0 3.976.84q2.079 0 3.98-.84c87-38.676 113.532-70.508 113.532-136.254V58.355q0-.96-.188-1.91a10 10 0 0 0-.558-1.836 9.8 9.8 0 0 0-2.121-3.18 9.8 9.8 0 0 0-3.18-2.12 10 10 0 0 0-1.836-.559 9.5 9.5 0 0 0-1.91-.184m-9.793 97.922c0 50.73-13.734 78.5-97.926 116.57-84.191-38.07-97.922-65.84-97.922-116.57V67.816a205 205 0 0 0 26.047-4.285c8.59-1.988 17.02-4.52 25.281-7.597a205 205 0 0 0 24.094-10.79 205 205 0 0 0 22.5-13.804A205 205 0 0 0 165 45.145a204.7 204.7 0 0 0 49.371 18.386 205 205 0 0 0 26.05 4.285ZM122.914 162.02l61.621-61.625a9.9 9.9 0 0 1 3.176-2.098 10 10 0 0 1 1.832-.547q.943-.18 1.902-.18c.64.004 1.278.067 1.903.192a10 10 0 0 1 1.828.558 9.6 9.6 0 0 1 1.687.907 9.74 9.74 0 0 1 3.594 4.375q.367.885.559 1.828a9.7 9.7 0 0 1 .191 1.902 9.7 9.7 0 0 1-.727 3.734 9.9 9.9 0 0 1-2.097 3.176l-68.547 68.547q-.681.68-1.484 1.219a10 10 0 0 1-1.692.906 9.84 9.84 0 0 1-7.496 0 10 10 0 0 1-1.691-.906 10 10 0 0 1-1.485-1.219L86.613 153.41a9.6 9.6 0 0 1-1.207-1.484 9.8 9.8 0 0 1-1.437-3.524 9.4 9.4 0 0 1-.18-1.902q0-.96.191-1.902a9.77 9.77 0 0 1 2.676-4.989 9.77 9.77 0 0 1 8.793-2.687 9.8 9.8 0 0 1 3.523 1.438 10 10 0 0 1 1.485 1.206Zm0 0"/></g></svg>