<svg xmlns="http://www.w3.org/2000/svg" width="380" height="390" version="1.0" viewBox="0 0 285 292.5"><defs><clipPath id="a"><path d="M198 168h58v56.914h-58Zm0 0"/></clipPath><clipPath id="b"><path d="M74 168h58v56.914H74Zm0 0"/></clipPath><clipPath id="c"><path d="M7.027 157H87v12H7.027Zm0 0"/></clipPath><clipPath id="d"><path d="M52 66.934h147V203H52Zm0 0"/></clipPath></defs><path fill="#fff" d="M80.406 202.445H57.828a5.645 5.645 0 0 1 0-11.289h22.578a5.645 5.645 0 0 1 0 11.29m183.454-.001h-14.114a5.645 5.645 0 0 1 0-11.289h9.426l7.61-40.55c-.102-20.75-17.825-38.473-39.614-38.473h-37.063l-17.96 79.023h32.445a5.645 5.645 0 0 1 0 11.29h-39.512a5.64 5.64 0 0 1-4.414-2.122 5.61 5.61 0 0 1-1.098-4.765l20.524-90.313a5.644 5.644 0 0 1 5.512-4.402h41.566c28.008 0 50.8 22.793 50.8 50.8l-8.566 46.196a5.63 5.63 0 0 1-5.543 4.605m0 0"/><g clip-path="url(#a)"><path fill="#fff" d="M227.168 225.023c-15.555 0-28.223-12.656-28.223-28.222s12.668-28.223 28.223-28.223c15.559 0 28.223 12.656 28.223 28.223s-12.664 28.222-28.223 28.222m0-45.156c-9.336 0-16.934 7.598-16.934 16.934s7.598 16.933 16.934 16.933 16.934-7.597 16.934-16.933-7.598-16.934-16.934-16.934m0 0"/></g><g clip-path="url(#b)"><path fill="#fff" d="M102.984 225.023c-15.554 0-28.222-12.656-28.222-28.222s12.668-28.223 28.222-28.223c15.559 0 28.227 12.656 28.227 28.223s-12.668 28.222-28.227 28.222m0-45.156c-9.336 0-16.933 7.598-16.933 16.934s7.597 16.933 16.933 16.933 16.934-7.597 16.934-16.933-7.598-16.934-16.934-16.934m0 0"/></g><path fill="#fff" d="M80.406 100.844H35.25a5.645 5.645 0 0 1 0-11.29h45.156a5.645 5.645 0 0 1 0 11.29m0 33.866H23.961a5.645 5.645 0 0 1 0-11.29l56.445.002a5.645 5.645 0 0 1 0 11.289m0 0"/><g clip-path="url(#c)"><path fill="#fff" d="M80.406 168.578H12.672a5.645 5.645 0 0 1 0-11.289h67.734a5.645 5.645 0 0 1 0 11.29m0 0"/></g><g clip-path="url(#d)"><path fill="#fff" d="M165.078 202.445h-39.515a5.647 5.647 0 0 1-5.645-5.644 5.647 5.647 0 0 1 5.644-5.645h35.012l25.649-112.894H57.828a5.645 5.645 0 0 1 0-11.29h135.473c1.715 0 3.34.782 4.414 2.126a5.62 5.62 0 0 1 1.094 4.761l-28.223 124.184a5.65 5.65 0 0 1-5.508 4.402m0 0"/></g></svg>