<svg xmlns="http://www.w3.org/2000/svg" width="380" height="390" version="1.0" viewBox="0 0 285 292.5"><defs><clipPath id="a"><path d="M4.14 7H281v278.406H4.14Zm0 0"/></clipPath></defs><g clip-path="url(#a)"><path fill="#fff" fill-rule="evenodd" d="M240.508 47.426C214.5 21.39 179.914 7.023 143.058 7.023c-75.933 0-137.734 61.79-137.761 137.75 0 24.278 6.336 47.989 18.39 68.872L4.142 285.027l73.035-19.164c20.12 10.985 42.777 16.758 65.828 16.774h.055c75.921 0 137.738-61.805 137.75-137.754 0-36.813-14.293-71.41-40.317-97.457Zm-97.45 211.949h-.038c-20.54 0-40.704-5.523-58.286-15.957l-4.18-2.488-43.34 11.367 11.56-42.254-2.723-4.332c-11.461-18.227-17.512-39.3-17.496-60.938.027-63.12 51.394-114.492 114.547-114.492 30.585 0 59.328 11.934 80.949 33.582 21.625 21.637 33.515 50.41 33.5 81.008-.028 63.137-51.395 114.504-114.504 114.504Zm62.81-85.746c-3.438-1.719-20.36-10.05-23.52-11.191-3.164-1.153-5.446-1.72-7.743 1.718-2.292 3.45-8.89 11.203-10.898 13.5-2.008 2.293-4.016 2.582-7.465.852-3.437-1.719-14.531-5.36-27.683-17.086-10.227-9.129-17.145-20.399-19.149-23.852-2.008-3.449-.207-5.304 1.512-7.023 1.539-1.54 3.437-4.027 5.168-6.035 1.719-2.008 2.297-3.45 3.437-5.746 1.153-2.293.575-4.301-.289-6.036-.867-1.714-7.738-18.664-10.613-25.55-2.79-6.711-5.637-5.801-7.738-5.914-2.008-.094-4.305-.121-6.598-.121-2.297 0-6.023.851-9.184 4.3-3.16 3.45-12.043 11.782-12.043 28.715 0 16.938 12.333 33.309 14.063 35.617 1.719 2.297 24.277 37.059 58.809 51.977 8.207 3.547 14.625 5.66 19.629 7.258 8.246 2.625 15.753 2.254 21.675 1.36 6.614-.99 20.36-8.329 23.235-16.372 2.87-8.043 2.87-14.93 2.004-16.371-.864-1.445-3.16-2.297-6.598-4.027Zm0 0"/></g></svg>