<svg xmlns="http://www.w3.org/2000/svg" width="380" height="390" version="1.0" viewBox="0 0 285 292.5"><defs><clipPath id="a"><path d="M4.309 116.79h277.027v64.39H4.309Zm0 0"/></clipPath></defs><g clip-path="url(#a)"><path fill="#65cf72" d="M36.473 116.832c-17.578 0-31.887 14.293-31.899 31.86a31.8 31.8 0 0 0 4.258 15.925L4.309 181.13l16.91-4.43a31.95 31.95 0 0 0 15.242 3.875h.012c17.582 0 31.89-14.293 31.902-31.86.004-8.51-3.312-16.519-9.336-22.542-6.023-6.016-14.031-9.336-22.566-9.34m0 58.363h-.008a26.5 26.5 0 0 1-13.492-3.687l-.97-.574-10.034 2.629 2.676-9.774-.63-1a26.4 26.4 0 0 1-4.054-14.094c.008-14.601 11.902-26.48 26.527-26.48 7.082 0 13.739 2.758 18.742 7.765 5.008 5.004 7.762 11.657 7.758 18.735-.008 14.601-11.898 26.48-26.515 26.48m14.547-19.832c-.801-.398-4.72-2.324-5.45-2.59-.73-.265-1.261-.398-1.793.403-.535.797-2.058 2.586-2.523 3.117-.465.535-.934.598-1.727.203-.797-.402-3.367-1.242-6.41-3.953-2.37-2.113-3.969-4.719-4.433-5.516-.461-.8-.051-1.226.351-1.625.36-.355.797-.93 1.195-1.394.395-.465.532-.797.797-1.332.266-.531.13-.996-.066-1.395-.195-.402-1.793-4.316-2.457-5.914-.649-1.55-1.305-1.344-1.797-1.367-.46-.023-.992-.027-1.523-.027-.532 0-1.395.199-2.13.996-.73.793-2.788 2.722-2.788 6.64 0 3.914 2.859 7.703 3.257 8.235s5.622 8.574 13.614 12.02a46 46 0 0 0 4.547 1.675c1.91.606 3.644.52 5.02.313 1.53-.227 4.714-1.926 5.378-3.786.66-1.859.66-3.449.461-3.785-.2-.332-.73-.531-1.523-.93Zm56.43-.484h-.087l-5.285-21.313h-6.371l-5.375 21.051h-.086l-4.898-21.05h-6.809l8.195 30.925h6.895l5.156-21.05h.09l5.246 21.05h6.762l8.324-30.926h-6.672l-5.074 21.313Zm32.515-10.852c-.61-.793-1.438-1.414-2.492-1.863-1.055-.445-2.41-.668-4.051-.668q-1.732.001-3.559.887c-1.215.59-2.207 1.539-2.988 2.836h-.133v-11.653h-6.156v30.926h6.156v-11.738q-.001-3.42 1.13-4.914 1.125-1.495 3.644-1.496 2.207.001 3.078 1.367c.574.906.863 2.289.863 4.133v12.648h6.156V150.72q-.001-2.08-.37-3.79c-.247-1.136-.673-2.105-1.278-2.898Zm25.36 15.485V147.86c0-1.359-.305-2.445-.915-3.27a6.2 6.2 0 0 0-2.34-1.925c-.953-.465-2.011-.773-3.164-.934a26 26 0 0 0-3.426-.238 18.5 18.5 0 0 0-3.703.371c-1.23.246-2.332.66-3.316 1.235a7.3 7.3 0 0 0-2.426 2.297q-.956 1.427-1.086 3.593h6.156c.114-1.21.52-2.082 1.215-2.597q1.038-.784 2.86-.782.819 0 1.539.11c.476.07.894.21 1.258.43q.538.327.867.913.323.587.324 1.579c.027.636-.16 1.117-.566 1.453q-.61.499-1.645.758c-.695.171-1.488.304-2.387.39-.894.086-1.808.203-2.73.348q-1.389.212-2.754.582a7.9 7.9 0 0 0-2.43 1.101q-1.06.738-1.734 1.973c-.445.824-.672 1.871-.672 3.14q0 1.731.582 2.985a5.7 5.7 0 0 0 1.625 2.082c.691.55 1.504.953 2.43 1.211.922.262 1.922.39 2.988.39 1.39 0 2.746-.202 4.078-.605a8 8 0 0 0 3.465-2.125q.047.568.152 1.106.112.542.282 1.058h6.242q-.435-.687-.606-2.078a23 23 0 0 1-.175-2.898Zm-6.157-3.684q.001.527-.11 1.387a4.6 4.6 0 0 1-.581 1.71q-.48.85-1.477 1.454c-.66.406-1.602.605-2.816.605-.489 0-.97-.043-1.434-.129a3.5 3.5 0 0 1-1.21-.457 2.3 2.3 0 0 1-.825-.886c-.2-.38-.305-.836-.305-1.387 0-.574.102-1.055.305-1.426q.303-.563.805-.933a4 4 0 0 1 1.167-.582c.446-.145.903-.258 1.368-.348q.733-.13 1.472-.215a20 20 0 0 0 1.41-.219q.673-.13 1.262-.324.585-.193.973-.539v2.293Zm17.644-20.441h-6.156v6.71h-3.726v4.114h3.726v13.215c0 1.125.192 2.035.563 2.726q.567 1.039 1.539 1.602c.652.379 1.402.625 2.258.758q1.278.194 2.71.195c.61 0 1.227-.016 1.868-.043a14 14 0 0 0 1.734-.172v-4.765a7 7 0 0 1-.914.128 10 10 0 0 1-.992.047q-1.56.001-2.082-.52c-.344-.347-.52-1.038-.52-2.081v-11.09h4.512v-4.113h-4.512v-6.711Zm25.446 19.297a5.5 5.5 0 0 0-1.606-1.774 8.8 8.8 0 0 0-2.273-1.152 27 27 0 0 0-2.621-.735 93 93 0 0 0-2.559-.562 22 22 0 0 1-2.234-.582q-.974-.327-1.578-.848c-.407-.347-.606-.789-.606-1.344 0-.46.11-.828.344-1.105.23-.273.516-.48.848-.629a3.8 3.8 0 0 1 1.101-.281c.403-.043.781-.063 1.125-.063 1.098 0 2.055.211 2.863.625.81.422 1.258 1.22 1.344 2.403h5.856c-.117-1.387-.473-2.532-1.063-3.446a7.04 7.04 0 0 0-2.23-2.183c-.895-.551-1.914-.938-3.059-1.172a18 18 0 0 0-3.531-.348q-1.824.001-3.555.325-1.733.322-3.12 1.125a6.3 6.3 0 0 0-2.235 2.187q-.844 1.383-.844 3.55 0 1.472.61 2.493c.398.68.937 1.238 1.6 1.687a9 9 0 0 0 2.278 1.083q1.279.414 2.621.718c2.2.461 3.91.922 5.141 1.387q1.84.69 1.84 2.078c0 .55-.13 1-.39 1.36a3 3 0 0 1-.977.867 4.6 4.6 0 0 1-1.301.472 6.6 6.6 0 0 1-1.367.157 7 7 0 0 1-1.758-.22 4.6 4.6 0 0 1-1.496-.671 3.6 3.6 0 0 1-1.063-1.168c-.273-.477-.414-1.047-.414-1.711h-5.851q.087 2.251 1.02 3.746a7.5 7.5 0 0 0 2.382 2.406q1.452.91 3.32 1.301 1.858.388 3.809.39c1.3 0 2.523-.124 3.75-.366 1.226-.246 2.32-.672 3.273-1.282a7.1 7.1 0 0 0 2.32-2.402c.59-1 .887-2.23.887-3.703q0-1.564-.609-2.617h-.004Zm12.226-21.118-11.707 30.926h6.852l2.422-6.887h11.578l2.34 6.887h7.07l-11.574-30.926Zm-.648 18.977 4.027-11.348h.086l3.903 11.348h-8.02Zm40.484-7.41a9.4 9.4 0 0 0-3.16-2.64q-1.909-.997-4.55-.997-2.079 0-3.817.824c-1.156.551-2.11 1.426-2.86 2.64h-.09v-2.862h-5.855v30.234h6.16V161.72h.086a7.2 7.2 0 0 0 2.887 2.488c1.168.563 2.45.844 3.836.844q2.472-.002 4.313-.953a9.2 9.2 0 0 0 3.078-2.555q1.235-1.604 1.843-3.684c.403-1.382.61-2.828.61-4.332 0-1.59-.207-3.109-.61-4.566-.406-1.457-1.027-2.738-1.867-3.832h-.004Zm-3.941 10.87c-.176.868-.473 1.622-.89 2.274a4.9 4.9 0 0 1-1.653 1.578q-1.014.612-2.531.614c-1.012 0-1.82-.203-2.512-.614a4.86 4.86 0 0 1-1.668-1.578q-.631-.972-.91-2.273a12.5 12.5 0 0 1-.281-2.64c0-.891.086-1.821.257-2.684.176-.864.47-1.633.891-2.297a5 5 0 0 1 1.648-1.621q1.019-.633 2.536-.633c1.007 0 1.812.21 2.492.633q1.02.62 1.672 1.644.649 1.015.93 2.317c.19.867.28 1.75.28 2.644s-.085 1.778-.257 2.64Zm30.344-7.038c-.407-1.453-1.028-2.735-1.864-3.832a9.4 9.4 0 0 0-3.164-2.64q-1.911-.997-4.554-.997-2.082 0-3.813.824c-1.156.551-2.113 1.426-2.863 2.64h-.086v-2.862h-5.856v30.234h6.157V161.72h.09a7.25 7.25 0 0 0 2.882 2.488c1.168.563 2.45.844 3.836.844q2.467-.002 4.313-.953a9.2 9.2 0 0 0 3.078-2.555q1.236-1.604 1.84-3.684c.406-1.382.605-2.828.605-4.332 0-1.59-.199-3.109-.605-4.566Zm-5.813 7.039c-.172.867-.469 1.621-.887 2.273a4.9 4.9 0 0 1-1.648 1.578q-1.013.612-2.535.614c-1.016 0-1.82-.203-2.516-.614a4.9 4.9 0 0 1-1.672-1.578q-.627-.972-.91-2.273a12.7 12.7 0 0 1-.281-2.64c0-.891.09-1.821.262-2.684.175-.864.468-1.633.89-2.297a5 5 0 0 1 1.649-1.621c.675-.422 1.523-.633 2.535-.633 1.015 0 1.812.21 2.492.633q1.019.62 1.668 1.644.651 1.015.934 2.317c.191.867.28 1.75.28 2.644s-.089 1.778-.26 2.64Zm0 0"/></g></svg>