<svg xmlns="http://www.w3.org/2000/svg" width="380" height="390" version="1.0" viewBox="0 0 285 292.5"><defs><clipPath id="a"><path d="M17 7.121h251v277.777H17Zm0 0"/></clipPath></defs><g clip-path="url(#a)"><path fill="#3c5e3d" d="M267.18 243.61 248.395 93.3c-1.59-12.722-12.461-22.32-25.286-22.32h-25.156v-8.44c0-30.556-24.86-55.419-55.418-55.419S87.117 31.984 87.117 62.54v8.441H61.961c-12.824 0-23.691 9.594-25.285 22.32l-18.79 150.31a36.7 36.7 0 0 0 8.903 28.831 36.7 36.7 0 0 0 27.512 12.414h176.465a36.7 36.7 0 0 0 36.414-41.246m-24.953 21.183c-3.47 2.402-7.649 3.562-11.868 3.562H54.301a20.196 20.196 0 0 1-20.04-22.7L53.048 95.35a9 9 0 0 1 8.914-7.868H76.31c5.968 0 10.808 4.84 10.808 10.813v39.488h16.5v-39.49c0-5.973 4.84-10.813 10.813-10.813h50.183v-16.5h-60.996v-7.75c0-21.777 17.82-39.972 39.594-39.601 21.148.363 38.242 17.68 38.242 38.91v75.242h16.5v-50.3h25.156c4.52 0 8.352 3.382 8.91 7.867l18.79 150.308a20.2 20.2 0 0 1-8.582 19.137m0 0"/></g></svg>